<svg width="195" height="60" viewBox="0 0 195 60" fill="none" xmlns="http://www.w3.org/2000/svg">
<path fill-rule="evenodd" clip-rule="evenodd" d="M33.682 18.5117C27.5285 20.6762 21.7537 22.7072 15.7472 24.82C15.7472 22.949 15.6115 21.3794 15.8173 19.856C15.8941 19.2869 16.6753 18.5818 17.2898 18.3527C22.1342 16.5463 27.0011 14.7964 31.8958 13.1308C33.3049 12.6514 33.8612 11.9481 33.7739 10.4288C33.6404 8.09072 33.7386 5.73954 33.7386 3C37.4168 5.36017 40.7625 7.49205 44.0899 9.65167C45.1346 10.3298 46.1393 11.0717 47.1465 11.8057C53.1362 16.1706 52.9454 24.9965 48.1017 28.9941C48.3259 29.2067 48.5227 29.4406 48.7626 29.613C53.4353 32.9651 54.4261 37.6671 53.279 42.8969C52.2256 47.7005 48.8087 50.308 44.1986 51.6115C38.2078 53.3051 32.2538 55.1281 26.2664 56.8334C25.5474 57.0377 24.6263 57.0804 23.9534 56.8116C18.3401 54.5695 12.7625 52.2382 7.17805 49.9245C7.02023 49.8593 6.90402 49.6933 6.60001 49.4256C9.17498 48.5218 11.6098 47.6127 14.0828 46.8214C15.2801 46.4379 15.758 45.8077 15.7213 44.5242C15.6463 41.9046 15.7903 39.2783 15.7119 36.6591C15.6763 35.4572 16.0864 34.8916 17.214 34.5062C21.8125 32.934 26.3811 31.2745 30.9608 29.6483C34.016 28.563 33.6685 29.0474 33.6801 25.7272C33.6888 23.4446 33.682 21.1616 33.682 18.5117Z" fill="white"/>
<mask id="mask0" mask-type="alpha" maskUnits="userSpaceOnUse" x="6" y="3" width="48" height="54">
<path fill-rule="evenodd" clip-rule="evenodd" d="M33.682 18.5117C27.5285 20.6762 21.7537 22.7072 15.7472 24.82C15.7472 22.949 15.6115 21.3794 15.8173 19.856C15.8941 19.2869 16.6753 18.5818 17.2898 18.3527C22.1342 16.5463 27.0011 14.7964 31.8958 13.1308C33.3049 12.6514 33.8612 11.9481 33.7739 10.4288C33.6404 8.09072 33.7386 5.73954 33.7386 3C37.4168 5.36017 40.7625 7.49205 44.0899 9.65167C45.1346 10.3298 46.1393 11.0717 47.1465 11.8057C53.1362 16.1706 52.9454 24.9965 48.1017 28.9941C48.3259 29.2067 48.5227 29.4406 48.7626 29.613C53.4353 32.9651 54.4261 37.6671 53.279 42.8969C52.2256 47.7005 48.8087 50.308 44.1986 51.6115C38.2078 53.3051 32.2538 55.1281 26.2664 56.8334C25.5474 57.0377 24.6263 57.0804 23.9534 56.8116C18.3401 54.5695 12.7625 52.2382 7.17805 49.9245C7.02023 49.8593 6.90402 49.6933 6.60001 49.4256C9.17498 48.5218 11.6098 47.6127 14.0828 46.8214C15.2801 46.4379 15.758 45.8077 15.7213 44.5242C15.6463 41.9046 15.7903 39.2783 15.7119 36.6591C15.6763 35.4572 16.0864 34.8916 17.214 34.5062C21.8125 32.934 26.3811 31.2745 30.9608 29.6483C34.016 28.563 33.6685 29.0474 33.6801 25.7272C33.6888 23.4446 33.682 21.1616 33.682 18.5117Z" fill="white"/>
</mask>
<g mask="url(#mask0)">
<rect width="60" height="60" fill="white"/>
</g>
<path d="M74.86 28.48H77.62V30.88H74.94V39H71.82V30.88H70.16V28.48H71.82V28C71.82 26.7733 72.18 25.8 72.9 25.08C73.6333 24.36 74.66 24 75.98 24C76.4467 24 76.8867 24.0533 77.3 24.16C77.7267 24.2533 78.08 24.3933 78.36 24.58L77.54 26.84C77.18 26.5867 76.76 26.46 76.28 26.46C75.3333 26.46 74.86 26.98 74.86 28.02V28.48ZM89.5777 33.66C89.5777 33.7 89.5577 33.98 89.5177 34.5H81.3777C81.5243 35.1667 81.871 35.6933 82.4177 36.08C82.9643 36.4667 83.6443 36.66 84.4577 36.66C85.0177 36.66 85.511 36.58 85.9377 36.42C86.3777 36.2467 86.7843 35.98 87.1577 35.62L88.8177 37.42C87.8043 38.58 86.3243 39.16 84.3777 39.16C83.1643 39.16 82.091 38.9267 81.1577 38.46C80.2243 37.98 79.5043 37.32 78.9977 36.48C78.491 35.64 78.2377 34.6867 78.2377 33.62C78.2377 32.5667 78.4843 31.62 78.9777 30.78C79.4843 29.9267 80.171 29.2667 81.0377 28.8C81.9177 28.32 82.8977 28.08 83.9777 28.08C85.031 28.08 85.9843 28.3067 86.8377 28.76C87.691 29.2133 88.3577 29.8667 88.8377 30.72C89.331 31.56 89.5777 32.54 89.5777 33.66ZM83.9977 30.44C83.291 30.44 82.6977 30.64 82.2177 31.04C81.7377 31.44 81.4443 31.9867 81.3377 32.68H86.6377C86.531 32 86.2377 31.46 85.7577 31.06C85.2777 30.6467 84.691 30.44 83.9977 30.44ZM98.1948 28.08C99.5282 28.08 100.602 28.48 101.415 29.28C102.242 30.08 102.655 31.2667 102.655 32.84V39H99.5348V33.32C99.5348 32.4667 99.3482 31.8333 98.9748 31.42C98.6015 30.9933 98.0615 30.78 97.3548 30.78C96.5682 30.78 95.9415 31.0267 95.4748 31.52C95.0082 32 94.7748 32.72 94.7748 33.68V39H91.6548V28.24H94.6348V29.5C95.0482 29.0467 95.5615 28.7 96.1748 28.46C96.7882 28.2067 97.4615 28.08 98.1948 28.08ZM116.56 24.16V39H113.58V37.76C112.807 38.6933 111.687 39.16 110.22 39.16C109.207 39.16 108.287 38.9333 107.46 38.48C106.647 38.0267 106.007 37.38 105.54 36.54C105.073 35.7 104.84 34.7267 104.84 33.62C104.84 32.5133 105.073 31.54 105.54 30.7C106.007 29.86 106.647 29.2133 107.46 28.76C108.287 28.3067 109.207 28.08 110.22 28.08C111.593 28.08 112.667 28.5133 113.44 29.38V24.16H116.56ZM110.76 36.6C111.547 36.6 112.2 36.3333 112.72 35.8C113.24 35.2533 113.5 34.5267 113.5 33.62C113.5 32.7133 113.24 31.9933 112.72 31.46C112.2 30.9133 111.547 30.64 110.76 30.64C109.96 30.64 109.3 30.9133 108.78 31.46C108.26 31.9933 108 32.7133 108 33.62C108 34.5267 108.26 35.2533 108.78 35.8C109.3 36.3333 109.96 36.6 110.76 36.6ZM122.428 29.66C122.801 29.14 123.301 28.7467 123.928 28.48C124.568 28.2133 125.301 28.08 126.128 28.08V30.96C125.781 30.9333 125.548 30.92 125.428 30.92C124.534 30.92 123.834 31.1733 123.328 31.68C122.821 32.1733 122.568 32.92 122.568 33.92V39H119.448V28.24H122.428V29.66ZM140.085 28.08C141.085 28.08 141.992 28.3133 142.805 28.78C143.632 29.2333 144.278 29.88 144.745 30.72C145.212 31.5467 145.445 32.5133 145.445 33.62C145.445 34.7267 145.212 35.7 144.745 36.54C144.278 37.3667 143.632 38.0133 142.805 38.48C141.992 38.9333 141.085 39.16 140.085 39.16C138.605 39.16 137.478 38.6933 136.705 37.76V39H133.725V24.16H136.845V29.38C137.632 28.5133 138.712 28.08 140.085 28.08ZM139.545 36.6C140.345 36.6 140.998 36.3333 141.505 35.8C142.025 35.2533 142.285 34.5267 142.285 33.62C142.285 32.7133 142.025 31.9933 141.505 31.46C140.998 30.9133 140.345 30.64 139.545 30.64C138.745 30.64 138.085 30.9133 137.565 31.46C137.058 31.9933 136.805 32.7133 136.805 33.62C136.805 34.5267 137.058 35.2533 137.565 35.8C138.085 36.3333 138.745 36.6 139.545 36.6ZM158.074 33.66C158.074 33.7 158.054 33.98 158.014 34.5H149.874C150.02 35.1667 150.367 35.6933 150.914 36.08C151.46 36.4667 152.14 36.66 152.954 36.66C153.514 36.66 154.007 36.58 154.434 36.42C154.874 36.2467 155.28 35.98 155.654 35.62L157.314 37.42C156.3 38.58 154.82 39.16 152.874 39.16C151.66 39.16 150.587 38.9267 149.654 38.46C148.72 37.98 148 37.32 147.494 36.48C146.987 35.64 146.734 34.6867 146.734 33.62C146.734 32.5667 146.98 31.62 147.474 30.78C147.98 29.9267 148.667 29.2667 149.534 28.8C150.414 28.32 151.394 28.08 152.474 28.08C153.527 28.08 154.48 28.3067 155.334 28.76C156.187 29.2133 156.854 29.8667 157.334 30.72C157.827 31.56 158.074 32.54 158.074 33.66ZM152.494 30.44C151.787 30.44 151.194 30.64 150.714 31.04C150.234 31.44 149.94 31.9867 149.834 32.68H155.134C155.027 32 154.734 31.46 154.254 31.06C153.774 30.6467 153.187 30.44 152.494 30.44ZM166.691 28.08C168.024 28.08 169.098 28.48 169.911 29.28C170.738 30.08 171.151 31.2667 171.151 32.84V39H168.031V33.32C168.031 32.4667 167.844 31.8333 167.471 31.42C167.098 30.9933 166.558 30.78 165.851 30.78C165.064 30.78 164.438 31.0267 163.971 31.52C163.504 32 163.271 32.72 163.271 33.68V39H160.151V28.24H163.131V29.5C163.544 29.0467 164.058 28.7 164.671 28.46C165.284 28.2067 165.958 28.08 166.691 28.08ZM185.056 24.16V39H182.076V37.76C181.303 38.6933 180.183 39.16 178.716 39.16C177.703 39.16 176.783 38.9333 175.956 38.48C175.143 38.0267 174.503 37.38 174.036 36.54C173.57 35.7 173.336 34.7267 173.336 33.62C173.336 32.5133 173.57 31.54 174.036 30.7C174.503 29.86 175.143 29.2133 175.956 28.76C176.783 28.3067 177.703 28.08 178.716 28.08C180.09 28.08 181.163 28.5133 181.936 29.38V24.16H185.056ZM179.256 36.6C180.043 36.6 180.696 36.3333 181.216 35.8C181.736 35.2533 181.996 34.5267 181.996 33.62C181.996 32.7133 181.736 31.9933 181.216 31.46C180.696 30.9133 180.043 30.64 179.256 30.64C178.456 30.64 177.796 30.9133 177.276 31.46C176.756 31.9933 176.496 32.7133 176.496 33.62C176.496 34.5267 176.756 35.2533 177.276 35.8C177.796 36.3333 178.456 36.6 179.256 36.6ZM190.924 29.66C191.297 29.14 191.797 28.7467 192.424 28.48C193.064 28.2133 193.797 28.08 194.624 28.08V30.96C194.277 30.9333 194.044 30.92 193.924 30.92C193.031 30.92 192.331 31.1733 191.824 31.68C191.317 32.1733 191.064 32.92 191.064 33.92V39H187.944V28.24H190.924V29.66Z" fill="white"/>
</svg>
